<svg width="26" height="24" viewBox="0 0 26 24" fill="none" xmlns="http://www.w3.org/2000/svg">
<path d="M22.9998 13.096L12.9998 23L2.99975 13.096C2.34016 12.4542 1.82061 11.6827 1.47381 10.8302C1.12702 9.97771 0.960499 9.06263 0.984734 8.14261C1.00897 7.22259 1.22343 6.31755 1.61463 5.48448C2.00582 4.65142 2.56526 3.90837 3.25773 3.30214C3.9502 2.69591 4.76069 2.23962 5.63817 1.96201C6.51564 1.6844 7.44109 1.59148 8.35624 1.6891C9.27139 1.78672 10.1564 2.07277 10.9556 2.52924C11.7548 2.98571 12.4507 3.6027 12.9998 4.34137C13.5511 3.60806 14.2479 2.99646 15.0466 2.54484C15.8452 2.09322 16.7284 1.8113 17.641 1.71673C18.5536 1.62215 19.4759 1.71696 20.3501 1.99522C21.2244 2.27348 22.0318 2.7292 22.7218 3.33385C23.4119 3.9385 23.9697 4.67908 24.3603 5.50922C24.751 6.33937 24.9661 7.24121 24.9922 8.15831C25.0183 9.07541 24.8548 9.98802 24.5119 10.839C24.1691 11.69 23.6543 12.4611 22.9998 13.104" stroke="#D9D9D9" stroke-width="1.5" stroke-linecap="round" stroke-linejoin="round"/>
</svg>
