<svg width="25" height="22" viewBox="0 0 25 22" fill="none" xmlns="http://www.w3.org/2000/svg">
<path d="M22.9998 12.0959L12.9998 21.9999L2.99975 12.0959M2.99975 12.0959C2.34016 11.4541 1.82061 10.6826 1.47381 9.83009C1.12702 8.97759 0.960499 8.06251 0.984734 7.14249C1.00897 6.22247 1.22343 5.31742 1.61463 4.48436C2.00582 3.65129 2.56526 2.90825 3.25773 2.30202C3.9502 1.69578 4.76069 1.2395 5.63817 0.961885C6.51564 0.684274 7.44109 0.591355 8.35624 0.688979C9.27139 0.786602 10.1564 1.07265 10.9556 1.52912C11.7548 1.98558 12.4507 2.60258 12.9998 3.34124C13.5511 2.60794 14.2479 1.99634 15.0466 1.54472C15.8452 1.0931 16.7284 0.811176 17.641 0.716604C18.5536 0.622031 19.4759 0.716841 20.3501 0.995099C21.2244 1.27336 22.0318 1.72907 22.7218 2.33373C23.4119 2.93838 23.9697 3.67896 24.3603 4.5091C24.751 5.33924 24.9661 6.24109 24.9922 7.15819C25.0183 8.07529 24.8548 8.9879 24.5119 9.83891C24.1691 10.6899 23.6543 11.461 22.9998 12.1039" fill="#F8227C"/>
</svg>
